<?xml version="1.0" encoding="UTF-8" standalone="no"?>
<!-- Created with Inkscape (http://www.inkscape.org/) -->

<svg
   width="30mm"
   height="30mm"
   viewBox="0 0 30 30"
   version="1.1"
   id="svg1"
   sodipodi:docname="icon.svg"
   inkscape:version="1.4.3 (0d15f75042, 2025-12-25)"
   xml:space="preserve"
   xmlns:inkscape="http://www.inkscape.org/namespaces/inkscape"
   xmlns:sodipodi="http://sodipodi.sourceforge.net/DTD/sodipodi-0.dtd"
   xmlns="http://www.w3.org/2000/svg"
   xmlns:svg="http://www.w3.org/2000/svg"><sodipodi:namedview
     id="namedview1"
     pagecolor="#505050"
     bordercolor="#ffffff"
     borderopacity="1"
     inkscape:showpageshadow="0"
     inkscape:pageopacity="0"
     inkscape:pagecheckerboard="1"
     inkscape:deskcolor="#505050"
     inkscape:document-units="mm"
     inkscape:zoom="4.982795"
     inkscape:cx="20.67113"
     inkscape:cy="73.954478"
     inkscape:window-width="1920"
     inkscape:window-height="1008"
     inkscape:window-x="0"
     inkscape:window-y="0"
     inkscape:window-maximized="1"
     inkscape:current-layer="layer1"><inkscape:page
       x="0"
       y="0"
       width="30"
       height="30"
       id="page2"
       margin="0"
       bleed="0" /></sodipodi:namedview><defs
     id="defs1" /><g
     inkscape:label="Calque 1"
     inkscape:groupmode="layer"
     id="layer1"><circle
       style="fill:#007595;fill-opacity:1;stroke:#007595;stroke-width:0;stroke-linecap:round;stroke-linejoin:round;stroke-opacity:1"
       id="path2"
       cx="14.89438"
       cy="14.947476"
       r="14.522681" /><path
       d="m 23.094596,13.387852 c 1.872791,0.338226 3.439037,0.881057 4.573351,1.712101 h -0.522333 c -1.177231,-0.5767 -2.605432,-0.950012 -4.222208,-1.170309 -0.06472,-0.0088 -0.130311,0.0045 -0.187625,0.03583 -0.43203,0.236198 -0.889138,0.310461 -1.382221,0.333609 -0.378464,0.01776 -0.818328,0.383043 -0.829935,0.487515 -0.255836,2.302744 -0.89703,3.431521 -2.460763,3.998729 -1.206698,0.324828 -2.334884,0.810129 -3.4068,1.410303 0.01633,1.012291 -0.03865,1.674624 -0.135771,2.130389 -0.006,0.02829 -0.04552,0.03068 -0.05494,0.0033 -0.146558,-0.425106 -0.147973,-1.033155 -0.07626,-1.733262 -0.08687,0.965091 -0.206718,1.7743 -0.366171,2.39619 -0.0071,0.02749 -0.04367,0.03334 -0.05857,0.0092 -0.186953,-0.302639 -0.125475,-1.072809 0.157771,-2.260323 -0.204089,0.560197 -0.382113,1.089025 -0.458491,1.567038 -0.08018,0.501833 -0.153341,0.913847 -0.285414,1.05491 -0.02861,0.03058 -0.07809,0.02963 -0.105471,-0.002 -0.129115,-0.149397 -0.154005,-0.483985 -0.03279,-0.954234 0.139814,-0.542417 0.372305,-1.09496 0.597783,-1.677297 -0.280639,0.596251 -0.543434,1.120569 -0.776438,1.524815 -0.01061,0.0184 -0.03765,0.01693 -0.04628,-0.0025 -0.04996,-0.112294 -0.07646,-0.253236 -0.01882,-0.40799 0.129133,-0.346772 0.402761,-0.8172 0.586172,-1.114341 -0.188674,0.214403 -0.367804,0.427067 -0.535919,0.637723 -0.01186,0.01485 -0.0359,0.0064 -0.03566,-0.01259 0.0038,-0.311706 0.397382,-0.705023 0.676051,-1.176438 0.265784,-0.449662 0.29719,-1.012488 0.301796,-1.584442 0.02141,-0.76201 0.220853,-1.427412 0.597784,-1.996495 -0.154242,0.176342 -0.309985,0.291177 -0.467609,0.329673 -0.03974,0.0097 -0.07772,-0.02351 -0.07163,-0.06397 0.06014,-0.398588 0.538451,-0.874414 1.020893,-1.350973 -0.604327,0.604713 -1.210851,1.099011 -1.820282,1.453023 -0.02528,0.01468 -0.0543,-0.01194 -0.04193,-0.0384 0.259101,-0.55443 0.890265,-1.041064 1.537172,-1.524911 -0.3131,0.285087 -0.674999,0.495396 -1.03523,0.737794 -0.401287,0.270017 -0.679235,0.612743 -1.188306,0.691042 -0.03387,0.0052 -0.05772,-0.03292 -0.03802,-0.06096 0.299187,-0.54302 1.121657,-1.061732 1.9075,-1.501378 -1.016741,0.552087 -2.058201,1.160422 -2.587635,1.304991 -0.04296,0.01173 -0.08396,-0.02648 -0.07297,-0.06963 0.0878,-0.344883 1.015057,-0.817574 2.115159,-1.31656 -0.981912,0.409128 -2.091922,0.884984 -2.472333,0.980823 -0.156685,0.04739 -0.284415,0.05298 -0.399073,0.03966 -0.05088,-0.0059 -0.07489,-0.0673 -0.04068,-0.105441 0.333205,-0.371445 1.706762,-0.759133 2.732204,-1.141335 -1.055701,0.303241 -2.065221,0.618954 -2.713218,0.787127 -0.152461,0.02614 -0.355522,0.0346 -0.545372,0.0029 -0.04687,-0.0078 -0.06233,-0.0669 -0.02635,-0.09795 0.387906,-0.334863 1.627356,-0.626378 2.971505,-0.912562 -1.61569,0.31492 -3.166607,0.62455 -4.1214435,0.88543 -0.034223,0.0094 -0.068985,0.01675 -0.104196,0.02102 -0.259199,0.03144 -0.5538371,0.03559 -0.8646643,0.02727 -0.049702,-0.0013 -0.067145,-0.06677 -0.024424,-0.0922 0.1462714,-0.08711 0.4083472,-0.218188 0.7561883,-0.290149 1.5147255,-0.313397 3.7050385,-0.827552 3.7201685,-0.853143 0.02033,-0.03425 -4.3379054,0.771286 -5.3432751,0.999434 -0.1829667,0.04153 -0.3696734,0.06429 -0.5572667,0.06719 -0.2078291,0.0032 -0.3964031,-0.0015 -0.5360892,-0.02663 -0.052752,-0.0095 -0.060649,-0.08197 -0.011153,-0.102545 0.9892489,-0.411342 3.7090915,-0.844946 6.082143,-1.274038 -2.4094408,0.276157 -4.6819259,0.634754 -6.6858388,1.154882 -0.3674678,0.06121 -0.6957683,0.05557 -0.9747044,-0.03426 -0.047718,-0.01536 -0.053111,-0.08086 -0.00902,-0.104731 0.8904332,-0.481956 4.3783489,-0.902062 7.0776242,-1.340982 -2.6027621,0.223608 -1.243485,-0.137839 -7.3126749,1.125907 -0.2918699,0.06402 -0.6316101,0.06161 -0.9914248,0.03131 -0.075117,-0.0063 -0.096387,-0.105937 -0.030395,-0.142367 1.0423522,-0.575336 4.974135,-0.945523 7.9108317,-1.386375 -0.863714,-0.228482 -4.8093904,0.587301 -8.1309513,1.183956 -0.2940252,0.05282 -0.5647034,0.01689 -0.8002693,-0.05323 -0.058047,-0.01728 -0.062129,-0.09846 -0.00619,-0.121704 1.9218441,-0.799208 4.836689,-1.162413 7.9392186,-1.380455 -0.09925,-0.08969 -0.152302,-0.182544 0.01162,-0.29019 0.501093,-0.09006 1.300936,-0.119947 2.153131,-0.139289 -1.181087,-0.0127 -2.257553,-0.08368 -3.086212,-0.292564 -0.056754,-0.0143 -0.059572,-0.09345 -0.00422,-0.112522 C 9.9034032,12.028062 10.90435,11.9777 12.236041,12.006574 10.610761,11.943144 9.2387239,11.816091 8.539605,11.520078 8.48085,11.495198 8.4888,11.409444 8.55127,11.396461 9.4403679,11.211654 10.525418,11.252237 11.696221,11.391361 10.174968,11.221249 8.8467398,10.992003 7.922062,10.639031 7.857869,10.614521 7.86878,10.520429 7.93685,10.511014 8.7854741,10.393529 9.8354516,10.489584 10.99399,10.700726 9.5125882,10.484814 8.2560503,10.116446 7.3333509,9.5217016 7.2941747,9.4964515 7.3124976,9.4355244 7.3590947,9.436646 8.2281997,9.457625 9.4127478,9.7155248 10.808318,10.13191 9.0140403,9.5233598 7.759481,8.9795008 7.1342301,8.5110808 7.0687806,8.462043 7.101981,8.3571751 7.1837434,8.355157 8.5497452,8.321418 11.105538,9.6601476 13.541875,10.70072 c 1.173473,0.501199 2.175578,1.069544 2.959937,1.781717 0.34519,0.313436 0.407499,0.895979 0.702246,1.108504 0.168224,0.121293 0.519434,0.113175 0.586172,0.0174 0.889573,-1.276312 1.553588,-2.130188 2.652305,-2.14156 0.941043,-0.0097 1.823446,0.559988 2.652305,1.921045 z"
       id="path1"
       style="fill:#ffffff;fill-opacity:1;stroke-width:0.0098886" /></g></svg>
