<?xml version="1.0" encoding="UTF-8" standalone="no"?>
<!-- Created with Inkscape (http://www.inkscape.org/) -->

<svg
   width="1200mm"
   height="630mm"
   viewBox="0 0 1200 630"
   version="1.1"
   id="svg1"
   inkscape:version="1.4.3 (0d15f75042, 2025-12-25)"
   sodipodi:docname="meta.svg"
   xml:space="preserve"
   xmlns:inkscape="http://www.inkscape.org/namespaces/inkscape"
   xmlns:sodipodi="http://sodipodi.sourceforge.net/DTD/sodipodi-0.dtd"
   xmlns:xlink="http://www.w3.org/1999/xlink"
   xmlns="http://www.w3.org/2000/svg"
   xmlns:svg="http://www.w3.org/2000/svg"><sodipodi:namedview
     id="namedview1"
     pagecolor="#505050"
     bordercolor="#ffffff"
     borderopacity="1"
     inkscape:showpageshadow="0"
     inkscape:pageopacity="0"
     inkscape:pagecheckerboard="1"
     inkscape:deskcolor="#505050"
     inkscape:document-units="mm"
     inkscape:zoom="0.12582815"
     inkscape:cx="2137.8363"
     inkscape:cy="2038.4945"
     inkscape:window-width="1920"
     inkscape:window-height="1008"
     inkscape:window-x="0"
     inkscape:window-y="0"
     inkscape:window-maximized="1"
     inkscape:current-layer="layer1" /><defs
     id="defs1"><linearGradient
       id="linearGradient1"
       inkscape:collect="always"><stop
         style="stop-color:#007595;stop-opacity:1;"
         offset="0"
         id="stop1" /><stop
         style="stop-color:#abd9e6;stop-opacity:1;"
         offset="1"
         id="stop2" /></linearGradient><linearGradient
       inkscape:collect="always"
       xlink:href="#linearGradient1"
       id="linearGradient2"
       x1="1073.4465"
       y1="75.999634"
       x2="-144.18015"
       y2="742.31549"
       gradientUnits="userSpaceOnUse"
       gradientTransform="matrix(0.99956216,0,0,1,0.52568389,0)" /></defs><g
     inkscape:label="Calque 1"
     inkscape:groupmode="layer"
     id="layer1"><rect
       style="fill:url(#linearGradient2);stroke:none;stroke-width:0;stroke-linecap:round;stroke-linejoin:round"
       id="rect1"
       width="1200.1127"
       height="629.68463"
       x="0.52568382"
       y="0.74342912"
       rx="2.1647055"
       ry="5.5356727" /><text
       xml:space="preserve"
       style="font-size:85.6735px;font-family:Z003;-inkscape-font-specification:Z003;writing-mode:lr-tb;direction:ltr;fill:#000000;fill-opacity:1;stroke:none;stroke-width:0;stroke-linecap:round;stroke-linejoin:round"
       x="315.09366"
       y="374.97604"
       id="text2"><tspan
         sodipodi:role="line"
         id="tspan2"
         style="font-style:normal;font-variant:normal;font-weight:normal;font-stretch:normal;font-size:85.6735px;font-family:'RIT Rachana';-inkscape-font-specification:'RIT Rachana, Normal';font-variant-ligatures:normal;font-variant-caps:normal;font-variant-numeric:normal;font-variant-east-asian:normal;fill:#000000;fill-opacity:1;stroke-width:0"
         x="315.09366"
         y="374.97604">Atelier Créaline</tspan></text><text
       xml:space="preserve"
       style="font-style:normal;font-variant:normal;font-weight:normal;font-stretch:normal;font-size:40.9097px;font-family:Comfortaa;-inkscape-font-specification:'Comfortaa, Normal';font-variant-ligatures:normal;font-variant-caps:normal;font-variant-numeric:normal;font-variant-east-asian:normal;writing-mode:lr-tb;direction:ltr;fill:#000000;fill-opacity:1;stroke:none;stroke-width:0;stroke-linecap:round;stroke-linejoin:round"
       x="205.05618"
       y="447.36264"
       id="text3"><tspan
         sodipodi:role="line"
         style="font-style:normal;font-variant:normal;font-weight:normal;font-stretch:normal;font-size:40.9097px;font-family:Comfortaa;-inkscape-font-specification:'Comfortaa, Normal';font-variant-ligatures:normal;font-variant-caps:normal;font-variant-numeric:normal;font-variant-east-asian:normal;stroke-width:0"
         x="205.05618"
         y="447.36264"
         id="tspan4">Médiation artistique en relation d’aide.</tspan></text><path
       d="m 688.63563,161.00218 c 23.64811,4.27086 43.42543,11.12531 57.74864,21.61906 h -6.59559 c -14.86514,-7.2821 -32.89933,-11.996 -53.3147,-14.77773 -0.81725,-0.11138 -1.64547,0.0567 -2.36918,0.45239 -5.45534,2.98251 -11.22733,3.92024 -17.45358,4.21255 -4.77895,0.22438 -10.33318,4.83676 -10.47977,6.15595 -3.2305,29.07723 -11.32697,43.33053 -31.07257,50.49277 -15.23723,4.10167 -29.48303,10.22966 -43.01836,17.80819 0.20628,12.78239 -0.4881,21.14583 -1.71439,26.90083 -0.0762,0.35724 -0.57476,0.38746 -0.69375,0.0421 -1.85061,-5.36794 -1.86847,-13.04587 -0.96295,-21.88628 -1.09707,12.18641 -2.6103,22.40447 -4.62374,30.2572 -0.089,0.34699 -0.5514,0.42104 -0.7397,0.11624 -2.36069,-3.82148 -1.58441,-13.54656 1.99222,-28.54155 -2.57708,7.07371 -4.82503,13.75134 -5.78948,19.7873 -1.01253,6.33676 -1.93627,11.53936 -3.60397,13.32056 -0.36135,0.38608 -0.98605,0.3741 -1.3318,-0.0259 -1.63036,-1.88645 -1.94464,-6.11137 -0.41405,-12.0493 1.76546,-6.84921 4.70115,-13.82627 7.54831,-21.17955 -3.54365,7.52897 -6.86206,14.14966 -9.80424,19.25412 -0.13386,0.23226 -0.47537,0.21365 -0.58437,-0.0313 -0.63081,-1.41796 -0.96545,-3.19766 -0.23774,-5.15178 1.63061,-4.37876 5.08573,-10.31894 7.40172,-14.071 -2.38241,2.70731 -4.64433,5.39265 -6.76716,8.05264 -0.14958,0.18742 -0.45326,0.0808 -0.45026,-0.15908 0.0479,-3.93598 5.01781,-8.90247 8.53662,-14.85514 3.35611,-5.67797 3.75269,-12.78489 3.81087,-20.00706 0.27021,-9.62207 2.78873,-18.02421 7.54831,-25.21018 -1.94764,2.22672 -3.91425,3.67677 -5.90459,4.16287 -0.50184,0.12261 -0.98144,-0.29693 -0.9044,-0.80775 0.75931,-5.03305 6.79913,-11.04141 12.89102,-17.05901 -7.63097,7.63585 -15.28967,13.87746 -22.98507,18.34762 -0.31915,0.18542 -0.68563,-0.15059 -0.52943,-0.48485 3.2717,-7.00092 11.24156,-13.14575 19.4102,-19.25539 -3.95358,3.59986 -8.52338,6.25547 -13.07207,9.31628 -5.06713,3.40955 -8.57682,7.73724 -15.00499,8.72591 -0.42766,0.0658 -0.72871,-0.41566 -0.4801,-0.76978 3.7779,-6.85682 14.1634,-13.40672 24.08638,-18.9582 -12.83857,6.97132 -25.98932,14.65286 -32.67456,16.47839 -0.54242,0.14809 -1.06023,-0.33427 -0.92151,-0.87917 1.10867,-4.35491 12.81735,-10.32369 26.70854,-16.62448 -12.3988,5.16615 -26.41511,11.17488 -31.21865,12.38507 -1.97848,0.59847 -3.59136,0.6689 -5.03917,0.50084 -0.64242,-0.0746 -0.94559,-0.84996 -0.51368,-1.33144 4.20743,-4.69029 21.55163,-9.58573 34.50009,-14.41188 -13.33054,3.8291 -26.07798,7.81566 -34.26036,9.93923 -1.92516,0.33001 -4.48926,0.4369 -6.88653,0.036 -0.59186,-0.099 -0.78702,-0.84472 -0.33277,-1.23679 4.8982,-4.22842 20.54898,-7.90942 37.52183,-11.52313 -20.40164,3.97656 -39.98541,7.88632 -52.04234,11.1805 -0.43215,0.11812 -0.87105,0.21139 -1.31569,0.26534 -3.27295,0.39707 -6.99342,0.44951 -10.91829,0.34438 -0.62757,-0.0169 -0.84783,-0.84309 -0.30842,-1.16424 1.847,-1.09993 5.15629,-2.75514 9.54853,-3.66378 19.12676,-3.95734 46.78428,-10.44967 46.97532,-10.77283 0.25672,-0.43252 -54.77562,9.7392 -67.47061,12.62008 -2.31036,0.5243 -4.66793,0.81186 -7.03674,0.84846 -2.62428,0.0404 -5.00545,-0.0199 -6.76929,-0.33627 -0.66615,-0.11949 -0.76579,-1.035 -0.14097,-1.29484 12.49146,-5.19413 46.83547,-10.66931 76.8005,-16.08757 -30.42452,3.4871 -59.11967,8.0152 -84.42349,14.58294 -4.64008,0.77292 -8.7856,0.70175 -12.30778,-0.43265 -0.60259,-0.19404 -0.67065,-1.02114 -0.11388,-1.32244 11.24369,-6.08578 55.28632,-11.39052 89.37062,-16.93289 -32.86562,2.82356 -15.70173,-1.7405 -92.33865,14.21708 -3.6855,0.80838 -7.97548,0.77791 -12.51893,0.39532 -0.94846,-0.0798 -1.21705,-1.33692 -0.3837,-1.79692 13.16198,-7.26488 62.80941,-11.93931 99.8917,-17.50603 -10.90629,-2.88511 -60.72917,7.41597 -102.67119,14.95005 -3.71273,0.6669 -7.13064,0.21339 -10.10517,-0.67215 -0.73296,-0.21818 -0.78452,-1.24319 -0.0784,-1.53674 24.26744,-10.09157 61.07379,-14.67784 100.25007,-17.43112 -1.25327,-1.13251 -1.92316,-2.305 0.14659,-3.66427 6.32739,-1.13726 16.42719,-1.51461 27.18803,-1.75885 -14.91383,-0.16044 -28.5066,-1.05672 -38.97025,-3.69424 -0.7166,-0.18068 -0.75219,-1.17997 -0.0536,-1.42084 6.27157,-2.1619 18.91074,-2.79784 35.72627,-2.43323 -20.52275,-0.80101 -37.84772,-2.40527 -46.67565,-6.14309 -0.74195,-0.31416 -0.64156,-1.39699 0.14722,-1.56093 11.22682,-2.3336 24.92797,-1.82115 39.71194,-0.0642 -19.20917,-2.14804 -35.98099,-5.04278 -47.65709,-9.49983 -0.81061,-0.30941 -0.67277,-1.49762 0.18668,-1.61649 10.71576,-1.48352 23.97401,-0.27059 38.60315,2.39553 -18.70597,-2.72617 -34.57251,-7.37763 -46.22364,-14.88762 -0.49459,-0.31877 -0.26321,-1.08819 0.32502,-1.07395 10.97436,0.26496 25.93189,3.52143 43.55403,8.77923 -22.65668,-7.6843 -38.49826,-14.55173 -46.39345,-20.466557 -0.82648,-0.61921 -0.40718,-1.9434 0.6252,-1.96887 17.2488,-0.42604 49.52131,16.478377 80.28546,29.617887 14.81769,6.32877 27.47147,13.50537 37.37573,22.49812 4.35878,3.95783 5.14555,11.31373 8.86739,13.99732 2.12419,1.53159 6.55902,1.42907 7.40173,0.21989 11.23282,-16.11628 19.61748,-26.89834 33.49119,-27.04194 11.88274,-0.12274 23.02504,7.07109 33.4912,24.25745 z"
       id="path1"
       style="stroke-width:0.124865" /></g></svg>
