<?xml version="1.0" encoding="UTF-8" standalone="no"?>
<svg
   version="1.0"
   width="1270.000000pt"
   height="1280.000000pt"
   viewBox="0 0 1270.000000 1280.000000"
   preserveAspectRatio="xMidYMid meet"
   id="svg2"
   sodipodi:docname="star.svg"
   inkscape:version="1.4.4 (dcaf3e7d9e, 2026-05-05)"
   xmlns:inkscape="http://www.inkscape.org/namespaces/inkscape"
   xmlns:sodipodi="http://sodipodi.sourceforge.net/DTD/sodipodi-0.dtd"
   xmlns="http://www.w3.org/2000/svg"
   xmlns:svg="http://www.w3.org/2000/svg">
  <defs
     id="defs2" />
  <sodipodi:namedview
     id="namedview2"
     pagecolor="#505050"
     bordercolor="#ffffff"
     borderopacity="1"
     inkscape:showpageshadow="0"
     inkscape:pageopacity="0"
     inkscape:pagecheckerboard="1"
     inkscape:deskcolor="#505050"
     inkscape:document-units="pt"
     inkscape:zoom="0.46816406"
     inkscape:cx="845.85732"
     inkscape:cy="853.33333"
     inkscape:window-width="1920"
     inkscape:window-height="1008"
     inkscape:window-x="0"
     inkscape:window-y="0"
     inkscape:window-maximized="1"
     inkscape:current-layer="g2" />
  <metadata
     id="metadata1">
Created by potrace 1.15, written by Peter Selinger 2001-2017
</metadata>
  <g
     transform="translate(0.000000,1280.000000) scale(0.100000,-0.100000)"
     fill="#000000"
     stroke="none"
     id="g2">
    <path
       d="m 6309.6524,12606.573 c -3.5963,-9.589 -314.075,-1017.747 -690.4857,-2240.481 C 5242.7562,9143.3562 4928.6811,8122.0129 4920.2899,8096.8388 l -14.3852,-45.5529 -2276.4449,-4.795 c -1251.5052,-2.3975 -2276.44477,-5.9937 -2278.84229,-8.3913 -3.59628,-3.5963 917.05119,-709.6657 2865.03589,-2200.923 441.1435,-338.0502 804.3678,-622.1563 806.7654,-629.3489 2.3975,-9.5901 -1244.3128,-4078.1808 -1394.1578,-4552.88972 -8.3912,-23.9752 -4.795,-22.7765 37.1616,8.39127 56.3417,40.75785 2796.7067,2138.58755 3300.1858,2525.78695 l 353.6341,270.9197 41.9566,-33.5652 c 85.1119,-65.9318 1052.5111,-806.7653 2330.389,-1786.1521 718.0572,-549.032 1307.8477,-996.16951 1310.2449,-992.57318 3.596,3.59623 -304.4854,1016.54838 -684.4922,2252.46978 -381.2057,1234.7225 -696.4795,2259.6621 -702.4732,2278.8423 -8.3914,31.1677 -1.1988,38.3603 190.6027,185.8077 110.286,83.9133 938.6289,719.2559 1841.2957,1410.9403 l 1642.301,1258.6978 -1162.797,9.5901 c -638.939,4.795 -1651.8917,7.1925 -2252.4703,5.9938 -599.3799,-2.3975 -1102.859,-2.3975 -1117.2442,0 -22.7765,3.5963 -33.5653,23.9752 -68.3293,137.8574 -22.7765,74.3232 -339.2491,1100.4615 -702.4733,2280.0414 -364.4229,1180.779 -664.1129,2148.177 -666.5104,2150.575 -2.3975,2.398 -7.1925,-2.398 -9.5901,-11.988 z"
       id="path2"
       style="fill:#dec61e;fill-opacity:1;stroke-width:1.19876" />
  </g>
</svg>
